<?xml version="1.0" encoding="UTF-8"?>
<svg id="Layer_1" data-name="Layer 1" xmlns="http://www.w3.org/2000/svg" viewBox="0 0 272.68 272.68">
  <defs>
    <style>
      .cls-1 {
        fill: #fff;
      }
    </style>
  </defs>
  <path class="cls-1" d="M115.38,100.6c0-10.75,8.53-10.01,8.53-10.01,6.66,0,7.41,5.56,10.01,11.5,10.38,21.48,37.43,24.08,48.55,24.08s57.09-2.97,57.09-47.81c0-51.9-61.9-71.56-102.3-71.56H35.69v259.49h129.74c37.05,0,96.38,2.22,96.38-50.4,0-82.31-146.44-70.81-146.44-115.3ZM102.41,261.1V12h14.1c9.56,0,21.69,4.07,32.38,11.97,3.09-1.47,6.55-2.29,10.19-2.29,12.86,0,23.31,10.22,23.73,22.96,8.84,3.44,15.08,12.04,15.08,22.09,0,13.11-10.64,23.73-23.75,23.73-.63,0-1.26-.02-1.89-.07-2.55,6.69-7.67,12.9-17.93,14.31-13.35,1.85-20.01-6.69-17.04-16.69,2.22-6.66.72-15.57-10.38-15.57s-17.79,8.53-17.79,24.83c0,56.71,83.01,57.84,83.01,115.67,0,47.08-55.22,48.18-89.7,48.18Z"/>
</svg>