<?xml version="1.0" encoding="UTF-8"?>
<svg id="Layer_1" data-name="Layer 1" xmlns="http://www.w3.org/2000/svg" viewBox="0 0 272.68 272.68">
  <defs>
    <style>
      .cls-1 {
        fill: #fff;
      }

      .cls-2 {
        fill: #f17300;
      }
    </style>
  </defs>
  <rect class="cls-2" width="272.68" height="272.68" rx="50.23" ry="50.23"/>
  <path class="cls-1" d="M125,110.96c0-7.65,6.07-7.12,6.07-7.12,4.74,0,5.28,3.96,7.12,8.19,7.39,15.29,26.64,17.14,34.56,17.14s40.64-2.11,40.64-34.03c0-36.94-44.06-50.94-72.82-50.94h-72.3v184.71h92.35c26.38,0,68.61,1.58,68.61-35.88,0-58.59-104.24-50.4-104.24-82.07ZM115.76,225.21V47.89h10.03c6.81,0,15.44,2.9,23.05,8.52,2.2-1.05,4.66-1.63,7.26-1.63,9.15,0,16.59,7.27,16.89,16.34,6.29,2.45,10.73,8.57,10.73,15.73,0,9.34-7.57,16.89-16.91,16.89-.45,0-.9-.02-1.35-.05-1.81,4.76-5.46,9.19-12.76,10.18-9.5,1.31-14.24-4.76-12.13-11.88,1.58-4.74.52-11.08-7.39-11.08s-12.66,6.07-12.66,17.67c0,40.37,59.09,41.17,59.09,82.34,0,33.51-39.3,34.3-63.85,34.3Z"/>
</svg>